# xmcd
#
# Track frame offsets:
#	150
#	13613
#	27773
#	40918
#	53204
#	67699
#	80649
#	93915
#	111138
#	122127
#	132793
#	144525
#	158157
#	166945
#	179906
#	192663
#
# Disc length: 2736 seconds
#
# Revision: 4
# Processed by: cddbd v1.5.2PL0 Copyright (c) Steve Scherf et al.
# Submitted via: EZCDAudioConverter 2.1.7.1
#
DISCID=d80aae10
DTITLE=Sound Dimension - Jamaica Soul Shake V1
DYEAR=2006
DGENRE=
TTITLE0=Heavy Beat
TTITLE1=Federated Backdrop
TTITLE2=Baby Face
TTITLE3=Rathid
TTITLE4=Bitter Blood
TTITLE5=Love Land
TTITLE6=Full Up
TTITLE7=Upsetters Dream
TTITLE8=Soul Shake
TTITLE9=The Thing
TTITLE10=My Heart In Rhythm
TTITLE11=Man Pon Spot
TTITLE12=Holy Moses
TTITLE13=Doctor Sappa Too
TTITLE14=Hail Don D
TTITLE15=Solas
EXTD=
EXTT0=
EXTT1=
EXTT2=
EXTT3=
EXTT4=
EXTT5=
EXTT6=
EXTT7=
EXTT8=
EXTT9=
EXTT10=
EXTT11=
EXTT12=
EXTT13=
EXTT14=
EXTT15=
PLAYORDER=
